{"title":"Furious 7 2015 CAM NEWAUDIO x264 CBRG","uid":11802728,"size":1212388581,"categoryP":"video","categoryS":"movies","magnet":"?xt=urn:btih:a03a03f5a6ea73fb4ef248d101c870bf418f854a&amp;dn=Furious+7+2015+CAM+NEWAUDIO+x264+CBRG&amp;tr=udp%3A%2F%2Ftracker.openbittorrent.com%3A80&amp;tr=udp%3A%2F%2Fopen.demonii.com%3A1337&amp;tr=udp%3A%2F%2Ftracker.coppersurfer.tk%3A6969&amp;tr=udp%3A%2F%2Fexodus.desync.com%3A6969","seeders":5,"leechers":0,"uploader":"HeartbleedTorrents","files":1,"time":1428459704,"description":"[b]Furious.7.2015.CAM.x264-CBRG.mp4[/b]\n\n[img]http://is2.mzstatic.com/image/pf/us/r30/Video3/v4/04/9d/03/049d039f-4c9b-8252-aa25-b12b02996b47/T0AP2_MLNA_Furious7_temp1400x2100.jpg[/img]\n\nNOTES: THIS IS THE BEST AUDIO I COULD HAVE. RECORDED THIS AND EDITIED AND SYNCED SOME PARTS IN THE MOVIE. FIRST CAM FROM CRZBOOST RELEASE GROUP.\n\nENJOY THE CAM! :)\n\n\n\nGeneral\nFurious.7.2015.CAM.x264-CBRG.mp4\nFormat                      : MPEG-4\nFormat profile              : Base Media / Version 2\nCodec ID                    : mp42\nFile size                   : 1.13 GiB\nDuration                    : 2h 6mn\nOverall bit rate mode       : Variable\nOverall bit rate            : 1 274 Kbps\nEncoded date                : UTC 2015-04-07 03:29:16\nTagged date                 : UTC 2015-04-07 03:29:16\n\nVideo\nID                          : 2\nFormat                      : AVC\nFormat/Info                 : Advanced Video Codec\nFormat profile              : &lt;a class=&quot;__cf_email__&quot; href=&quot;/cdn-cgi/l/email-protection&quot; data-cfemail=&quot;fbb69a9295bbb7c8d5cb&quot;&gt;[email&amp;#160;protected]&lt;/a&gt;&lt;script cf-hash='f9e31' type=&quot;text/javascript&quot;&gt;\n/* &lt;![CDATA[ */!function(){try{var t=&quot;currentScript&quot;in document?document.currentScript:function(){for(var t=document.getElementsByTagName(&quot;script&quot;),e=t.length;e--;)if(t[e].getAttribute(&quot;cf-hash&quot;))return t[e]}();if(t&amp;&amp;t.previousSibling){var e,r,n,i,c=t.previousSibling,a=c.getAttribute(&quot;data-cfemail&quot;);if(a){for(e=&quot;&quot;,r=parseInt(a.substr(0,2),16),n=2;a.length-n;n+=2)i=parseInt(a.substr(n,2),16)^r,e+=String.fromCharCode(i);e=document.createTextNode(e),c.parentNode.replaceChild(e,c)}}}catch(u){}}();/* ]]&gt; */&lt;/script&gt;\nFormat settings, CABAC      : Yes\nFormat settings, ReFrames   : 3 frames\nFormat settings, GOP        : M=4, N=15\nCodec ID                    : avc1\nCodec ID/Info               : Advanced Video Coding\nDuration                    : 2h 6mn\nBit rate mode               : Variable\nBit rate                    : 1 141 Kbps\nMaximum bit rate            : 2 000 Kbps\nWidth                       : 854 pixels\nHeight                      : 480 pixels\nDisplay aspect ratio        : 16:9\nFrame rate mode             : Constant\nFrame rate                  : 25.000 fps\nStandard                    : NTSC\nColor space                 : YUV\nChroma subsampling          : 4:2:0\nBit depth                   : 8 bits\nScan type                   : Progressive\nBits/(Pixel*Frame)          : 0.111\nStream size                 : 1.01 GiB (90%)\nLanguage                    : English\nEncoded date                : UTC 2015-04-07 03:29:16\nTagged date                 : UTC 2015-04-07 03:29:16\nColor range                 : Limited\n\nAudio\nID                          : 1\nFormat                      : AAC\nFormat/Info                 : Advanced Audio Codec\nFormat profile              : LC\nCodec ID                    : 40\nDuration                    : 2h 6mn\nBit rate mode               : Constant\nBit rate                    : 128 Kbps\nChannel(s)                  :  channel0\nChannel(s)_Original         : 2 channels\nChannel positions           : Front: L R\nSampling rate               : 48.0 KHz\nCompression mode            : Lossy\nStream size                 : 116 MiB (10%)\nLanguage                    : English\nEncoded date                : UTC 2015-04-07 03:29:16\nTagged date                 : UTC 2015-04-07 03:29:16\n\n\n\n[img]http://i.imgur.com/SjLaAFk.jpg[/img]","torrent":{"xt":"urn:btih:a03a03f5a6ea73fb4ef248d101c870bf418f854a","amp;dn":"Furious+7+2015+CAM+NEWAUDIO+x264+CBRG","amp;tr":["udp%3A%2F%2Ftracker.openbittorrent.com%3A80","udp%3A%2F%2Fopen.demonii.com%3A1337","udp%3A%2F%2Ftracker.coppersurfer.tk%3A6969","udp%3A%2F%2Fexodus.desync.com%3A6969"],"infoHash":"a03a03f5a6ea73fb4ef248d101c870bf418f854a","infoHashBuffer":{"type":"Buffer","data":[160,58,3,245,166,234,115,251,78,242,72,209,1,200,112,191,65,143,133,74]},"announce":[],"urlList":[]}}